<svg width="48" height="48" viewBox="0 0 48 48" fill="none" xmlns="http://www.w3.org/2000/svg">
<path fill-rule="evenodd" clip-rule="evenodd" d="M23.9999 7.33325C28.4202 7.33325 32.6594 9.0892 35.785 12.2148C38.9106 15.3404 40.6666 19.5796 40.6666 23.9999C40.6666 33.2047 33.2047 40.6666 23.9999 40.6666C14.7952 40.6666 7.33325 33.2047 7.33325 23.9999C7.33325 14.7952 14.7952 7.33325 23.9999 7.33325ZM28.4833 13.9999H19.5166C16.4736 14.0091 14.0091 16.4736 13.9999 19.5166V28.4833C14.0091 31.5262 16.4736 33.9908 19.5166 33.9999H28.4833C31.5262 33.9908 33.9908 31.5262 33.9999 28.4833V19.5166C33.9908 16.4736 31.5262 14.0091 28.4833 13.9999ZM28.4833 15.7666C30.5543 15.7666 32.2333 17.4455 32.2333 19.5166V28.4833L32.2246 28.74C32.0927 30.6913 30.468 32.2333 28.4833 32.2333H19.5166C17.4455 32.2333 15.7666 30.5543 15.7666 28.4833V19.5166C15.7666 17.4455 17.4455 15.7666 19.5166 15.7666H28.4833ZM23.9999 18.8499C21.1557 18.8499 18.8499 21.1557 18.8499 23.9999C18.8499 26.8442 21.1557 29.1499 23.9999 29.1499C25.3658 29.1499 26.6757 28.6073 27.6415 27.6415C28.6073 26.6757 29.1499 25.3658 29.1499 23.9999C29.1499 21.1557 26.8442 18.8499 23.9999 18.8499ZM23.9999 20.6666C25.8409 20.6666 27.3333 22.159 27.3333 23.9999C27.3333 25.8409 25.8409 27.3333 23.9999 27.3333C22.159 27.3333 20.6666 25.8409 20.6666 23.9999C20.6666 22.159 22.159 20.6666 23.9999 20.6666ZM29.3666 17.3333C29.0238 17.3415 28.6966 17.4783 28.4499 17.7166C28.2026 17.9608 28.0634 18.294 28.0634 18.6416C28.0634 18.9892 28.2026 19.3223 28.4499 19.5666C28.6975 19.8035 29.0241 19.9401 29.3666 19.9499C29.7105 19.9468 30.0395 19.8092 30.2833 19.5666V19.5499C30.6529 19.1782 30.7631 18.6209 30.5628 18.1365C30.3625 17.652 29.8908 17.3353 29.3666 17.3333Z" fill="black"/>
</svg>
