<svg width="48" height="48" viewBox="0 0 48 48" fill="none" xmlns="http://www.w3.org/2000/svg">
<path fill-rule="evenodd" clip-rule="evenodd" d="M10.6666 11.3999C24.9833 11.3999 36.6 23.0166 36.6 37.3332H31.8833C31.8833 25.6166 22.3833 16.1166 10.6666 16.1166V11.3999ZM10.6666 20.8332C19.7833 20.8332 27.1666 28.2166 27.1666 37.3332H22.45C22.45 30.8332 17.1666 25.5499 10.6666 25.5499V20.8332ZM14.3 30.0666C16.3066 30.0666 17.9333 31.6933 17.9333 33.6999C17.9333 35.7065 16.3066 37.3332 14.3 37.3332C12.2933 37.3332 10.6666 35.7065 10.6666 33.6999C10.6666 31.6933 12.2933 30.0666 14.3 30.0666Z" fill="black"/>
</svg>
