<svg width="48" height="48" viewBox="0 0 48 48" fill="none" xmlns="http://www.w3.org/2000/svg">
<path d="M23.9999 7.33325C14.7952 7.33325 7.33325 14.7952 7.33325 23.9999C7.33325 33.2047 14.7952 40.6666 23.9999 40.6666C33.2047 40.6666 40.6666 33.2047 40.6666 23.9999C40.6666 19.5796 38.9106 15.3404 35.785 12.2148C32.6594 9.0892 28.4202 7.33325 23.9999 7.33325ZM32.3333 20.8333C32.3333 20.9999 32.3333 21.1833 32.3333 21.3499C32.3556 24.389 31.1583 27.3102 29.0092 29.4592C26.8602 31.6083 23.939 32.8057 20.8999 32.7833C18.7186 32.7931 16.5817 32.1676 14.7499 30.9833C15.0719 30.9999 15.3946 30.9999 15.7166 30.9833C17.5239 31.0097 19.2866 30.4221 20.7166 29.3166C19.0082 29.269 17.5169 28.1456 16.9999 26.5166C17.2507 26.5782 17.5085 26.6062 17.7666 26.5999C18.1207 26.5987 18.4734 26.5539 18.8166 26.4666C16.9699 26.0521 15.6597 24.4092 15.6666 22.5166C16.2219 22.8299 16.8458 23.0016 17.4833 23.0166C15.6739 21.8483 15.0954 19.4684 16.1666 17.5999C18.2147 20.131 21.2474 21.6656 24.4999 21.8166C24.4283 21.5161 24.3892 21.2088 24.3833 20.8999C24.3833 18.6816 26.1816 16.8833 28.3999 16.8833C29.5178 16.8709 30.589 17.3308 31.3499 18.1499C32.2282 17.9677 33.0683 17.635 33.8333 17.1666C33.5397 18.1033 32.9105 18.8986 32.0666 19.3999C32.8685 19.3079 33.6505 19.0885 34.3833 18.7499C33.828 19.5597 33.134 20.265 32.3333 20.8333Z" fill="black"/>
</svg>
