<svg width="48" height="48" viewBox="0 0 48 48" fill="none" xmlns="http://www.w3.org/2000/svg">
<path fill-rule="evenodd" clip-rule="evenodd" d="M23.9999 7.33325C28.4202 7.33325 32.6594 9.0892 35.785 12.2148C38.9106 15.3404 40.6666 19.5796 40.6666 23.9999C40.6666 33.2047 33.2047 40.6666 23.9999 40.6666C14.7952 40.6666 7.33325 33.2047 7.33325 23.9999C7.33325 14.7952 14.7952 7.33325 23.9999 7.33325ZM25.3055 16.9401L23.9999 16.9499C21.3887 16.9008 18.7771 17.0289 16.1833 17.3333C15.3065 17.5702 14.629 18.2669 14.4166 19.1499C14.129 20.7504 13.9895 22.3739 13.9999 23.9999C13.9864 25.6426 14.1259 27.2831 14.4166 28.8999C14.6448 29.7637 15.3194 30.4384 16.1833 30.6666C18.776 30.9877 21.3876 31.1325 23.9999 31.0999C26.6123 31.1325 29.2238 30.9877 31.8166 30.6666C32.6934 30.4297 33.3709 29.733 33.5833 28.8499C33.8708 27.2495 34.0103 25.626 33.9999 23.9999C34.0134 22.3572 33.8739 20.7168 33.5833 19.0999C33.355 18.2361 32.6804 17.5615 31.8166 17.3333C29.2227 17.0289 26.6111 16.9008 23.9999 16.9499L25.3055 16.9401ZM21.9499 21.0333L27.1833 23.9999L21.9499 26.9666V21.0333Z" fill="black"/>
</svg>
